<svg width="24" height="24" viewBox="0 0 24 24" fill="none" xmlns="http://www.w3.org/2000/svg">
<g clip-path="url(#clip0_2168_9858)">
<g clip-path="url(#clip1_2168_9858)">
<path d="M16.9027 5.08761C17.1418 4.84922 17.1424 4.46213 16.904 4.22303L14.9785 2.29157C14.7401 2.05244 14.353 2.05187 14.1139 2.29023L2.28373 14.0838C2.04463 14.3221 2.044 14.7092 2.28239 14.9484L4.20786 16.8798C4.44625 17.119 4.83334 17.1195 5.07244 16.8812C5.63239 16.323 6.54233 16.3243 7.10056 16.8843C7.6588 17.4443 7.65739 18.3542 7.09742 18.9124C6.85832 19.1508 6.85769 19.5379 7.09607 19.777L9.02154 21.7085C9.25993 21.9476 9.64703 21.9482 9.88613 21.7098L21.7163 9.91627C21.9555 9.67788 21.9561 9.29078 21.7177 9.05168L19.7922 7.12023C19.5538 6.8811 19.1667 6.88053 18.9276 7.11889C18.3677 7.6771 17.4578 7.67571 16.8995 7.11574C16.3413 6.55576 16.3427 5.64585 16.9027 5.08761ZM16.0336 7.979C16.9195 8.86769 18.2829 8.99694 19.3078 8.36615L20.4201 9.48196L12.9566 16.9223L11.9442 15.9067C11.7058 15.6676 11.3187 15.667 11.0796 15.9054C10.8405 16.1437 10.8399 16.5308 11.0782 16.7699L12.0907 17.7856L9.45585 20.4123L8.34349 19.2965C8.97744 18.2735 8.85242 16.9098 7.96649 16.0211C7.08057 15.1324 5.71721 15.0031 4.69229 15.6339L3.57994 14.5181L6.21478 11.8914L7.22727 12.907C7.46566 13.1462 7.85275 13.1467 8.09185 12.9084C8.33095 12.67 8.33156 12.2829 8.09319 12.0438L7.08071 11.0282L14.5442 3.5878L15.6566 4.70362C15.0226 5.7266 15.1476 7.09032 16.0336 7.979Z" fill="#002B5E" stroke="#002B5E" stroke-width="0.2"/>
<path d="M8.67045 13.491C8.43132 13.7294 8.43075 14.1165 8.66911 14.3556L9.63186 15.3213C9.87024 15.5605 10.2573 15.561 10.4964 15.3227C10.7355 15.0843 10.7361 14.6972 10.4978 14.4581L9.53504 13.4924C9.53504 13.4924 9.53504 13.4924 9.53504 13.4924C9.29669 13.2532 8.90957 13.2526 8.67045 13.491Z" fill="#002B5E" stroke="#002B5E" stroke-width="0.2"/>
</g>
</g>
<defs>
<clipPath id="clip0_2168_9858">
<rect width="24" height="24" fill="white"/>
</clipPath>
<clipPath id="clip1_2168_9858">
<rect width="20" height="20" fill="white" transform="translate(2 2)"/>
</clipPath>
</defs>
</svg>
