<svg width="18" height="16" viewBox="0 0 18 16" fill="none" xmlns="http://www.w3.org/2000/svg">
<g clip-path="url(#clip0_2161_9039)">
<path d="M17.1456 8.00001L15.2865 5.98903L15.5776 3.29683L12.859 2.73612L11.4723 0.38916L8.93417 1.49426L6.39606 0.38916L5.00932 2.73612L2.29075 3.29683L2.58181 5.98903L0.722656 8.00001L2.58178 10.011L2.29072 12.7032L5.00928 13.2639L6.39603 15.6109L8.93413 14.5057L11.4722 15.6109L12.859 13.2639L15.5775 12.7032L15.2865 10.011L17.1456 8.00001ZM12.3766 6.24834L8.25477 10.7473L5.39053 7.95687L6.07179 7.29315L8.21498 9.38114L11.6578 5.6233L12.3766 6.24834Z" fill="#FEDD00"/>
</g>
<defs>
<clipPath id="clip0_2161_9039">
<rect width="16.423" height="16" fill="white" transform="translate(0.722656)"/>
</clipPath>
</defs>
</svg>
