<svg width="24" height="24" viewBox="0 0 24 24" fill="none" xmlns="http://www.w3.org/2000/svg">
<g clip-path="url(#clip0_2168_9879)">
<g clip-path="url(#clip1_2168_9879)">
<path d="M18.3533 6.6334C16.7952 5.07207 14.7654 4.15543 12.5859 4.01574V3.17188H13.4453C13.7689 3.17188 14.0312 2.90953 14.0312 2.58594C14.0312 2.26234 13.7689 2 13.4453 2H10.5546C10.2311 2 9.96871 2.26234 9.96871 2.58594C9.96871 2.90953 10.2311 3.17188 10.5546 3.17188H11.414V4.01574C9.91961 4.11152 8.49574 4.57266 7.24594 5.35652L6.68933 4.79879C6.41844 4.52734 6.05808 4.37789 5.67461 4.37789C5.29113 4.37789 4.93078 4.52738 4.65992 4.79879L3.8134 5.64715C3.25617 6.20547 3.25617 7.11398 3.8134 7.67234L4.37379 8.23391C3.4893 9.64918 3.01562 11.2871 3.01562 12.9982C3.01562 15.4024 3.95 17.6629 5.64664 19.363C7.34359 21.0635 9.59992 22 12 22C14.4 22 16.6563 21.0635 18.3533 19.363C20.0499 17.6629 20.9843 15.4024 20.9843 12.9982C20.9843 10.594 20.0499 8.33355 18.3533 6.6334ZM4.64289 6.47496L5.48945 5.62664C5.55617 5.5598 5.6341 5.5498 5.67465 5.5498C5.71519 5.5498 5.79316 5.55977 5.85988 5.62664L6.28449 6.05211C6.0643 6.23465 5.85133 6.42836 5.64668 6.63344C5.44262 6.83793 5.24984 7.0507 5.06816 7.2707L4.64289 6.84457C4.54117 6.74266 4.54117 6.57684 4.64289 6.47496ZM12 20.8281C7.69215 20.8281 4.1875 17.3156 4.1875 12.9982C4.1875 8.68078 7.69215 5.16828 12 5.16828C16.3078 5.16828 19.8124 8.68074 19.8124 12.9982C19.8124 17.3157 16.3078 20.8281 12 20.8281Z" fill="#002B5E"/>
<path d="M12 6.2666C8.29527 6.2666 5.28125 9.28637 5.28125 12.9982C5.28125 16.71 8.29527 19.7297 12 19.7297C15.7048 19.7297 18.7188 16.71 18.7188 12.9982C18.7188 9.28637 15.7048 6.2666 12 6.2666ZM12.586 18.5268V17.842C12.586 17.5184 12.3236 17.256 12 17.256C11.6764 17.256 11.4141 17.5184 11.4141 17.842V18.5268C8.82207 18.2528 6.75668 16.1823 6.48391 13.5841H7.15629C7.47988 13.5841 7.74223 13.3218 7.74223 12.9982C7.74223 12.6746 7.47988 12.4122 7.15629 12.4122H6.48395C6.75668 9.81406 8.82207 7.74352 11.4141 7.46949V8.15438C11.4141 8.47797 11.6764 8.74031 12 8.74031C12.3236 8.74031 12.586 8.47797 12.586 8.15438V7.46949C15.178 7.74352 17.2434 9.81406 17.5162 12.4122H16.8438C16.5202 12.4122 16.2579 12.6746 16.2579 12.9982C16.2579 13.3218 16.5202 13.5841 16.8438 13.5841H17.5161C17.2434 16.1823 15.178 18.2528 12.586 18.5268Z" fill="#002B5E"/>
<path d="M13.4477 12.6601H12.6211V10.2903C12.6211 9.96669 12.3588 9.70435 12.0352 9.70435C11.7116 9.70435 11.4492 9.96669 11.4492 10.2903V13.246C11.4492 13.5696 11.7116 13.832 12.0352 13.832H13.4477C13.7713 13.832 14.0337 13.5696 14.0337 13.246C14.0337 12.9224 13.7713 12.6601 13.4477 12.6601Z" fill="#002B5E"/>
</g>
</g>
<defs>
<clipPath id="clip0_2168_9879">
<rect width="24" height="24" fill="white"/>
</clipPath>
<clipPath id="clip1_2168_9879">
<rect width="20" height="20" fill="white" transform="translate(2 2)"/>
</clipPath>
</defs>
</svg>
