<svg width="36" height="36" viewBox="0 0 36 36" fill="none" xmlns="http://www.w3.org/2000/svg">
<circle cx="18" cy="18" r="17.25" stroke="white" stroke-width="1.5"/>
<path d="M21 13.29V9C21 8.45 20.55 8 20 8H16C15.45 8 15 8.45 15 9V13.29C15 13.42 15.05 13.55 15.15 13.64L17.65 16.14C17.85 16.34 18.16 16.34 18.36 16.14L20.86 13.64C20.95 13.55 21 13.43 21 13.29ZM13.29 15H9C8.45 15 8 15.45 8 16V20C8 20.55 8.45 21 9 21H13.29C13.42 21 13.55 20.95 13.64 20.85L16.14 18.35C16.34 18.15 16.34 17.84 16.14 17.64L13.64 15.14C13.55 15.05 13.43 15 13.29 15ZM15 22.71V27C15 27.55 15.45 28 16 28H20C20.55 28 21 27.55 21 27V22.71C21 22.58 20.95 22.45 20.85 22.36L18.35 19.86C18.15 19.66 17.84 19.66 17.64 19.86L15.14 22.36C15.05 22.45 15 22.57 15 22.71ZM22.35 15.15L19.85 17.65C19.65 17.85 19.65 18.16 19.85 18.36L22.35 20.86C22.44 20.95 22.57 21.01 22.7 21.01H27C27.55 21.01 28 20.56 28 20.01V16.01C28 15.46 27.55 15.01 27 15.01H22.71C22.57 15 22.45 15.05 22.35 15.15Z" fill="white"/>
</svg>
