<svg width="36" height="36" viewBox="0 0 36 36" fill="none" xmlns="http://www.w3.org/2000/svg">
<circle cx="18" cy="18" r="17.25" stroke="white" stroke-width="1.5"/>
<g clip-path="url(#clip0_2244_1197)">
<path d="M10.5 18C11.8807 18 13 16.8807 13 15.5C13 14.1193 11.8807 13 10.5 13C9.11929 13 8 14.1193 8 15.5C8 16.8807 9.11929 18 10.5 18Z" fill="white"/>
<path d="M15 14C16.3807 14 17.5 12.8807 17.5 11.5C17.5 10.1193 16.3807 9 15 9C13.6193 9 12.5 10.1193 12.5 11.5C12.5 12.8807 13.6193 14 15 14Z" fill="white"/>
<path d="M21 14C22.3807 14 23.5 12.8807 23.5 11.5C23.5 10.1193 22.3807 9 21 9C19.6193 9 18.5 10.1193 18.5 11.5C18.5 12.8807 19.6193 14 21 14Z" fill="white"/>
<path d="M25.5 18C26.8807 18 28 16.8807 28 15.5C28 14.1193 26.8807 13 25.5 13C24.1193 13 23 14.1193 23 15.5C23 16.8807 24.1193 18 25.5 18Z" fill="white"/>
<path d="M23.3387 20.86C22.4687 19.84 21.7387 18.97 20.8587 17.95C20.3987 17.41 19.8087 16.87 19.1087 16.63C18.9987 16.59 18.8887 16.56 18.7787 16.54C18.5287 16.5 18.2587 16.5 17.9987 16.5C17.7387 16.5 17.4687 16.5 17.2087 16.55C17.0987 16.57 16.9887 16.6 16.8787 16.64C16.1787 16.88 15.5987 17.42 15.1287 17.96C14.2587 18.98 13.5287 19.85 12.6487 20.87C11.3387 22.18 9.72868 23.63 10.0287 25.66C10.3187 26.68 11.0487 27.69 12.3587 27.98C13.0887 28.13 15.4187 27.54 17.8987 27.54H18.0787C20.5587 27.54 22.8887 28.12 23.6187 27.98C24.9287 27.69 25.6587 26.67 25.9487 25.66C26.2587 23.62 24.6487 22.17 23.3387 20.86Z" fill="white"/>
</g>
<defs>
<clipPath id="clip0_2244_1197">
<rect width="24" height="24" fill="white" transform="translate(6 6)"/>
</clipPath>
</defs>
</svg>
