<svg width="36" height="36" viewBox="0 0 36 36" fill="none" xmlns="http://www.w3.org/2000/svg">
<circle cx="18" cy="18" r="17.25" stroke="white" stroke-width="1.5"/>
<g clip-path="url(#clip0_2215_2986)">
<path d="M13 24C11.9 24 11.01 24.9 11.01 26C11.01 27.1 11.9 28 13 28C14.1 28 15 27.1 15 26C15 24.9 14.1 24 13 24ZM7 9C7 9.55 7.45 10 8 10H9L12.6 17.59L11.25 20.03C10.52 21.37 11.48 23 13 23H24C24.55 23 25 22.55 25 22C25 21.45 24.55 21 24 21H13L14.1 19H21.55C22.3 19 22.96 18.59 23.3 17.97L26.88 11.48C27.25 10.82 26.77 10 26.01 10H11.21L10.54 8.57C10.38 8.22 10.02 8 9.64 8H8C7.45 8 7 8.45 7 9ZM23 24C21.9 24 21.01 24.9 21.01 26C21.01 27.1 21.9 28 23 28C24.1 28 25 27.1 25 26C25 24.9 24.1 24 23 24Z" fill="white"/>
</g>
<defs>
<clipPath id="clip0_2215_2986">
<rect width="24" height="24" fill="white" transform="translate(6 6)"/>
</clipPath>
</defs>
</svg>
