<svg width="36" height="36" viewBox="0 0 36 36" fill="none" xmlns="http://www.w3.org/2000/svg">
<circle cx="18" cy="18" r="17.25" stroke="white" stroke-width="1.5"/>
<path d="M26 24V23C27.1 23 27.99 22.1 27.99 21L28 11C28 9.9 27.1 9 26 9H10C8.9 9 8 9.9 8 11V21C8 22.1 8.9 23 10 23V24H7C6.45 24 6 24.45 6 25C6 25.55 6.45 26 7 26H29C29.55 26 30 25.55 30 25C30 24.45 29.55 24 29 24H26ZM11 11H25C25.55 11 26 11.45 26 12V20C26 20.55 25.55 21 25 21H11C10.45 21 10 20.55 10 20V12C10 11.45 10.45 11 11 11Z" fill="white"/>
</svg>
